<svg width="280" height="100" viewBox="0 0 280 100" fill="none" xmlns="http://www.w3.org/2000/svg">
    <path d="M103.135 83.6294V46.3633H110.219V77.983H119.561V46.3633H126.646V77.983H128.903V91.158H122.32V83.6294H103.135Z" fill="#008549"/>
    <path d="M132.853 83.6294V46.3633H139.436V60.291C139.436 66.3766 139.122 70.7682 138.558 73.4659H138.621L148.965 46.3633H156.614V83.6294H150.031V69.5135C150.031 63.5534 150.345 59.2872 150.909 56.5895H150.846L140.501 83.6294H132.853Z" fill="#008549"/>
    <path d="M160.752 64.8709C160.752 62.5496 161.128 60.4165 161.818 58.5344C162.507 56.6523 163.448 55.1465 164.639 54.0173C165.83 52.888 167.084 52.0097 168.526 51.445C169.968 50.8804 171.41 50.5667 172.978 50.5667H175.047V46.3633H182.131V50.5667H184.2C185.768 50.5667 187.272 50.8804 188.652 51.445C190.094 52.0097 191.348 52.888 192.539 54.0173C193.73 55.1465 194.608 56.6523 195.297 58.5344C195.987 60.4165 196.363 62.5496 196.363 64.8709C196.363 67.3177 196.05 69.4507 195.36 71.2701C194.67 73.1523 193.73 74.5952 192.601 75.7245C191.41 76.791 190.156 77.6066 188.714 78.1713C187.335 78.7359 185.83 78.9869 184.263 78.9869H182.194V83.5667H175.109V78.9869H173.04C171.473 78.9869 169.968 78.7359 168.589 78.1713C167.21 77.6066 165.893 76.791 164.702 75.7245C163.511 74.658 162.57 73.1523 161.88 71.2701C161.065 69.4507 160.752 67.3177 160.752 64.8709ZM167.962 64.8709C167.962 67.6313 168.401 69.7644 169.341 71.2701C170.282 72.7758 171.598 73.5287 173.291 73.5287H174.984V56.0876H173.291C171.598 56.0876 170.344 56.9032 169.341 58.5344C168.464 60.1028 167.962 62.2359 167.962 64.8709ZM182.069 73.5287H183.699C185.391 73.5287 186.771 72.7758 187.649 71.2701C188.589 69.7644 189.028 67.6313 189.028 64.8709C189.028 62.2359 188.526 60.1028 187.586 58.4716C186.645 56.8405 185.329 56.0249 183.699 56.0249H182.069V73.5287Z" fill="#008549"/>
    <path d="M200.627 83.6294V46.3633H213.981C215.925 46.3633 217.68 46.8652 219.185 47.8062C220.69 48.81 221.818 50.1275 222.633 51.7587C223.386 53.3899 223.824 55.2093 223.824 57.2169C223.824 59.2872 223.448 61.1694 222.633 62.8633C221.818 64.5572 220.69 65.9374 219.185 66.9412C217.68 67.945 215.925 68.4469 213.981 68.4469H207.774V83.6294H200.627ZM207.712 62.926H211.285C213.041 62.926 214.357 62.4241 215.235 61.4831C216.113 60.542 216.552 59.1618 216.552 57.3424C216.552 55.5857 216.113 54.2055 215.235 53.2644C214.357 52.3234 213.041 51.8842 211.285 51.8842H207.712V62.926Z" fill="#008549"/>
    <path d="M228.464 72.2741V70.4547H235.549V73.0269C235.549 74.9718 235.862 76.4148 236.489 77.3558C237.116 78.2969 238.244 78.7361 239.812 78.7361C241.128 78.7361 242.194 78.2342 242.884 77.1676C243.636 76.1011 243.95 74.6581 243.95 72.776V66.2513H238.056V60.6049H243.95V57.5307C243.95 55.3977 243.636 53.8292 243.072 52.7627C242.445 51.6961 241.379 51.1942 239.812 51.1942C238.244 51.1942 237.116 51.7589 236.489 52.8254C235.862 53.892 235.549 55.4604 235.549 57.5307H228.464V55.9623C228.464 52.8254 229.467 50.2532 231.411 48.371C233.354 46.4889 236.175 45.5479 239.812 45.5479C243.574 45.5479 246.395 46.4889 248.338 48.371C250.282 50.2532 251.222 52.7627 251.222 55.9623V71.8349C251.222 76.1011 250.282 79.238 248.401 81.3083C246.52 83.3159 243.699 84.3824 239.937 84.3824C236.05 84.3824 233.166 83.4414 231.285 81.4965C229.404 79.6771 228.464 76.603 228.464 72.2741Z" fill="#008549"/>
    <path d="M256.05 83.6294V46.3633H263.134V62.4869L271.724 46.3633H279.686L270.282 62.4869L280 83.6294H272.1L265.956 68.7606L263.134 72.4621V83.6294H256.05Z" fill="#008549"/>
    <path d="M23.3855 27.8553C22.7585 25.534 20.6268 23.7773 18.0563 23.7773C14.9842 23.7773 12.5391 26.2241 12.5391 29.2983C12.5391 32.3724 14.9842 34.8192 18.0563 34.8192C20.6268 34.8192 22.6958 33.0625 23.3855 30.7412H37.1159C37.3666 29.7374 37.6801 28.7336 37.9936 27.7926H23.3855V27.8553Z" fill="#83C7BA"/>
    <path d="M14.922 43.9165C14.5458 41.2188 12.2888 39.1484 9.46744 39.1484C6.39534 39.1484 3.9502 41.5952 3.9502 44.6693C3.9502 47.7435 6.39534 50.1903 9.46744 50.1903C11.7245 50.1903 13.7308 48.81 14.5458 46.8024H34.7966C34.8593 45.7986 34.8593 44.8576 34.9847 43.8538H14.922V43.9165Z" fill="#83C7BA"/>
    <path d="M24.4519 53.2645C23.8249 50.9432 21.6932 49.1865 19.1227 49.1865C16.0506 49.1865 13.6055 51.6333 13.6055 54.7074C13.6055 57.7816 16.0506 60.2283 19.1227 60.2283C21.6932 60.2283 23.7622 58.4717 24.4519 56.1504H35.0475C34.9848 55.2093 34.9221 54.2055 34.8594 53.2017H24.4519V53.2645Z" fill="#83C7BA"/>
    <path d="M10.8464 63.616C10.2194 61.2947 8.08777 59.5381 5.51724 59.5381C2.44514 59.5381 0 61.9849 0 65.059C0 68.1331 2.44514 70.5799 5.51724 70.5799C8.08777 70.5799 10.1567 68.8233 10.8464 66.502H36.6771C36.4263 65.5609 36.2382 64.5571 36.0502 63.5533H10.8464V63.616Z" fill="#83C7BA"/>
    <path d="M30.6579 81.3709C30.031 79.0496 27.8993 77.293 25.3288 77.293C22.2567 77.293 19.8115 79.7397 19.8115 82.8139C19.8115 85.888 22.2567 88.3348 25.3288 88.3348C27.8993 88.3348 29.9683 86.5781 30.6579 84.2568H44.0121C43.3852 83.3158 42.8209 82.312 42.2567 81.3082H30.6579V81.3709Z" fill="#83C7BA"/>
    <path d="M21.6931 71.5838C21.0661 69.2625 18.9345 67.5059 16.3639 67.5059C13.2918 67.5059 10.8467 69.9526 10.8467 73.0268C10.8467 76.1009 13.2918 78.5477 16.3639 78.5477C18.9345 78.5477 21.0034 76.791 21.6931 74.4697H38.8718C38.8718 74.4697 38.4956 72.7758 38.1194 71.5211H21.6931V71.5838Z" fill="#83C7BA"/>
    <path d="M66.2069 76.9163C64.0753 74.7205 61.9436 72.5874 59.812 70.5171C55.5486 66.2509 51.2226 62.0475 46.9593 57.7186C42.3825 53.076 39.7493 47.4924 39.2477 40.9677C38.6207 32.3099 41.4421 24.9696 47.5863 18.884C53.6051 12.924 59.5612 6.96388 65.5173 0.941065C65.7054 0.752852 65.8308 0.439163 66.1442 0C67.7743 1.69392 69.2163 3.19962 70.6584 4.70532C75.9248 9.97528 81.254 15.2452 86.395 20.5779C89.8433 24.154 91.8496 28.4829 92.7273 33.3137C94.232 41.9087 92.3511 49.7509 86.5204 56.3384C83.5737 59.7262 80.2508 62.8004 77.116 65.9373C73.6678 69.3878 70.2195 72.9011 66.7712 76.3517C66.6458 76.5399 66.4577 76.6654 66.2069 76.9163ZM77.116 22.2091C76.7399 22.5228 76.5518 22.711 76.3637 22.8992C70.1568 29.1103 63.9499 35.384 57.743 41.5951C55.4232 43.9163 53.0408 46.3004 50.7211 48.6217C50.4703 48.8726 50.2822 49.4373 50.4076 49.6255C51.7242 51.6958 53.5424 53.2015 55.1725 54.8327C64.2007 45.7985 73.1662 36.827 82.2571 27.73C80.627 25.9106 78.9342 24.0913 77.116 22.2091ZM66.0816 65.9373C66.4577 65.6236 66.6458 65.4981 66.7712 65.3726C70.9718 61.1692 75.1098 56.9658 79.3104 52.7624C83.5737 48.4962 85.7054 43.4144 85.3919 37.3916C85.3919 36.9525 85.2665 36.576 85.2038 36.0114C84.8276 36.3251 84.6395 36.5133 84.4515 36.7015C80.3762 40.7795 76.301 44.8574 72.1631 48.9354C68.5267 52.5741 64.8903 56.2129 61.254 59.8517C61.0032 60.1027 60.5016 60.3536 61.0032 60.8555C62.7587 62.4867 64.3888 64.1806 66.0816 65.9373ZM47.022 40.9677C55.2352 32.749 63.3229 24.7186 71.2226 16.8137C69.5925 15.1198 67.837 13.3631 65.9562 11.4183C65.8308 11.6065 65.6427 11.9202 65.4546 12.1711C61.3167 16.3118 57.2414 20.4525 53.0408 24.5304C49.6552 27.8555 47.5863 31.7452 47.0847 36.4506C46.8966 37.9563 47.022 39.462 47.022 40.9677Z" fill="#009A59"/>
    <path d="M66.2066 99.0632C61.0655 93.9187 55.9871 88.8369 50.9715 83.7552C48.6517 81.4339 46.2693 79.1126 44.263 76.5404C41.1909 72.6506 39.5608 68.0708 39.31 63.1145C39.1846 60.9814 39.4354 58.7856 39.4981 56.6525C39.4981 56.5271 39.5608 56.3388 39.5608 56.2134C39.5608 56.1506 39.6235 56.1506 39.7489 56.0879C40.0624 57.0917 40.3758 58.0955 40.6893 59.0993C42.194 63.3655 44.8273 66.8788 48.0247 70.0156C53.7928 75.7248 59.5608 81.4966 65.2661 87.2685C65.5169 87.5194 65.8304 87.7704 66.2693 88.2096C67.5859 86.8293 68.8398 85.5118 70.0937 84.2571C75.1721 79.1753 80.1878 74.0936 85.2661 69.0118C88.6517 65.624 90.9715 61.6715 92.2881 57.0917C92.3508 56.778 92.4762 56.4643 92.7896 56.1506C92.915 56.8407 93.0404 57.4681 93.1031 58.1582C93.7301 66.6278 91.2222 74.0309 85.2034 80.1164C79.1219 86.2647 72.9777 92.413 66.8962 98.4985C66.6454 98.624 66.4574 98.8122 66.2066 99.0632Z" fill="#009A59"/>
    <path d="M108.651 25.3464L104.2 20.7038V25.3464H102.758V15.6221H104.2V20.2647L108.463 15.6221H109.341V16.5004L105.767 20.3274L109.654 24.3426V25.3464H108.651Z" fill="#008549"/>
    <path d="M115.924 19.6994L111.096 28.6081H110.219V27.6671L112.162 24.2792L109.654 19.7621V18.8838H110.532L112.789 23.0872L115.046 18.8838H115.861V19.6994H115.924Z" fill="#008549"/>
    <path d="M120.251 25.4716C119.185 25.4716 118.37 25.1579 117.805 24.4678C117.241 23.7777 116.928 22.7739 116.928 21.5191V20.3898C116.928 19.6997 116.99 19.1351 117.053 18.6332C117.179 18.1313 117.304 17.6921 117.555 17.253C117.805 16.8138 118.182 16.5001 118.621 16.2492C119.059 15.9982 119.686 15.81 120.376 15.7473L121.128 15.6845C121.567 15.6218 121.881 15.559 122.006 15.3708L122.194 15.1826H123.009V15.9982C122.884 16.2492 122.633 16.3746 122.382 16.5001C122.131 16.6256 121.693 16.6883 121.128 16.7511L120.251 16.8765C119.31 17.002 118.683 17.3157 118.37 17.8176C118.056 18.3195 117.868 19.1351 117.868 20.2644C118.056 19.8252 118.37 19.4488 118.746 19.1351C119.185 18.8841 119.686 18.6959 120.188 18.6959C121.128 18.6959 121.881 19.0096 122.445 19.6997C123.009 20.3271 123.323 21.1427 123.323 22.0838C123.323 23.0248 123.009 23.8404 122.445 24.4678C121.881 25.0952 121.254 25.4716 120.251 25.4716ZM118.746 23.7149C119.122 24.1541 119.561 24.3423 120.188 24.3423C120.815 24.3423 121.316 24.1541 121.63 23.7149C122.006 23.2758 122.131 22.7111 122.131 22.0838C122.131 21.4564 121.943 20.8917 121.63 20.4526C121.254 20.0134 120.815 19.8252 120.188 19.8252C119.561 19.8252 119.059 20.0134 118.683 20.4526C118.307 20.8917 118.182 21.3936 118.182 22.0838C118.244 22.7739 118.432 23.2758 118.746 23.7149Z" fill="#008549"/>
    <path d="M126.771 25.4715C126.081 25.4715 125.517 25.2833 125.14 24.9068C124.764 24.5304 124.576 24.0285 124.576 23.4639C124.576 22.8992 124.764 22.3973 125.203 22.0836C125.642 21.7072 126.269 21.5817 127.147 21.5817C127.397 21.5817 127.648 21.5817 127.899 21.6445C128.15 21.7072 128.338 21.7072 128.463 21.7072L128.651 21.77V21.3935C128.651 20.3897 128.213 19.8878 127.272 19.8878C126.959 19.8878 126.645 19.9506 126.457 20.076C126.206 20.2015 126.081 20.327 125.955 20.4525L125.83 20.6407H125.015V19.8251L125.078 19.7624C125.078 19.6996 125.14 19.6996 125.203 19.6369C125.266 19.5741 125.329 19.5114 125.391 19.4487C125.454 19.3859 125.579 19.3232 125.705 19.1977C125.83 19.135 125.955 19.0722 126.144 19.0095C126.269 18.9468 126.457 18.884 126.708 18.884C126.896 18.8213 127.147 18.8213 127.397 18.8213C128.275 18.8213 128.902 19.0722 129.404 19.5114C129.843 19.9506 130.093 20.5779 130.093 21.4563V25.4715H129.028L128.902 24.5304C128.714 24.7814 128.463 25.0323 128.15 25.2205C127.774 25.346 127.335 25.4715 126.771 25.4715ZM127.021 24.4049C127.523 24.4049 127.962 24.2795 128.275 23.9658C128.589 23.6521 128.777 23.3384 128.777 23.0247V22.711C128.401 22.5855 127.899 22.5228 127.272 22.5228C126.771 22.5228 126.457 22.5855 126.269 22.7738C126.081 22.962 125.955 23.1502 125.955 23.4639C125.893 24.0913 126.269 24.4049 127.021 24.4049Z" fill="#008549"/>
    <path d="M133.166 25.3458H131.85V18.8838H133.166V21.456H136.301V18.8838H137.618V25.3458H136.301V22.5226H133.166V25.3458Z" fill="#008549"/>
    <path d="M142.382 25.472C141.317 25.472 140.502 25.1583 139.937 24.5309C139.373 23.9035 139.06 23.0879 139.06 22.0841C139.06 21.1431 139.373 20.3275 139.937 19.7001C140.564 19.0727 141.317 18.6963 142.32 18.6963C142.508 18.6963 142.759 18.6963 142.947 18.759C143.135 18.759 143.323 18.8218 143.448 18.8845C143.574 18.9472 143.762 19.01 143.887 19.0727C144.013 19.1355 144.138 19.1982 144.201 19.2609C144.263 19.3237 144.389 19.3864 144.451 19.4491C144.514 19.5119 144.577 19.5746 144.64 19.6374C144.702 19.7001 144.702 19.7628 144.765 19.8256C144.828 19.8883 144.828 19.8883 144.828 19.951V20.0138V20.7666H144.013C144.013 20.7666 144.013 20.7039 143.95 20.7039C143.95 20.6412 143.887 20.6412 143.887 20.5784C143.887 20.5157 143.824 20.4529 143.762 20.4529C143.699 20.3902 143.636 20.3275 143.636 20.3275C143.574 20.2647 143.511 20.202 143.448 20.202C143.386 20.1393 143.26 20.1393 143.197 20.0765C143.072 20.0138 143.009 20.0138 142.884 20.0138C142.759 20.0138 142.633 19.951 142.445 19.951C141.818 19.951 141.317 20.1393 140.94 20.5784C140.627 21.0176 140.439 21.5195 140.439 22.2096C140.439 22.8997 140.627 23.4016 140.94 23.8408C141.254 24.2799 141.755 24.4682 142.445 24.4682C142.696 24.4682 142.947 24.4054 143.135 24.3427C143.323 24.2799 143.511 24.2172 143.636 24.0917C143.762 24.029 143.824 23.9035 143.887 23.8408C143.95 23.7153 144.013 23.6526 144.013 23.5898C144.013 23.5271 144.075 23.5271 144.075 23.4643H144.89V24.2799C144.89 24.2799 144.89 24.3427 144.828 24.4054C144.765 24.4682 144.702 24.5936 144.577 24.7191C144.451 24.8446 144.326 24.9701 144.138 25.0955C143.95 25.221 143.699 25.2837 143.386 25.4092C143.072 25.472 142.759 25.472 142.382 25.472Z" fill="#008549"/>
    <path d="M147.711 25.3458H146.395V18.8838H147.711V21.8325L150.658 18.8838H151.473V19.6994L149.153 21.9579L151.661 24.4674V25.3458H150.783L147.711 22.2089V25.3458Z" fill="#008549"/>
    <path d="M154.295 25.3458H153.104V18.8838H154.42V23.4636L157.806 18.8838H158.997V25.3458H157.68V20.7659L154.295 25.3458Z" fill="#008549"/>
    <path d="M162.068 25.3462H160.877V18.8842H162.194V23.4641L165.579 18.8842H166.77V25.3462H165.454V20.7663L162.068 25.3462ZM164.764 17.7549C164.513 17.8177 164.2 17.8804 163.886 17.8804C163.573 17.8804 163.259 17.8177 163.009 17.7549C162.758 17.6922 162.57 17.5667 162.444 17.4413C162.319 17.3158 162.194 17.1903 162.131 17.1276C162.068 17.0021 162.005 16.9394 161.943 16.8139L161.88 16.6884V15.9355H162.883V15.9983C162.883 15.9983 162.883 16.061 162.946 16.1238C162.946 16.1865 163.009 16.2492 163.009 16.312C163.009 16.3747 163.071 16.4374 163.134 16.5002C163.197 16.5629 163.259 16.6257 163.322 16.6884C163.385 16.7511 163.447 16.7511 163.573 16.8139C163.698 16.8139 163.761 16.8766 163.886 16.8766C164.137 16.8766 164.325 16.8139 164.513 16.6884C164.701 16.5629 164.764 16.4374 164.827 16.2492L164.889 16.061H165.893V16.8139C165.893 16.8766 165.893 16.8766 165.83 16.9393C165.83 17.0021 165.767 17.0648 165.642 17.1903C165.516 17.3158 165.454 17.4413 165.328 17.5667C165.203 17.6922 165.015 17.6922 164.764 17.7549Z" fill="#008549"/>
    <path d="M173.229 25.3458H171.912V18.8838H176.301V20.0131H173.166V25.3458H173.229Z" fill="#008549"/>
    <path d="M180.25 25.4717C179.247 25.4717 178.432 25.158 177.868 24.4679C177.241 23.8405 176.99 23.0249 176.99 22.0839C176.99 21.1428 177.304 20.3272 177.868 19.6999C178.495 19.0725 179.247 18.7588 180.25 18.7588C181.254 18.7588 182.069 19.0725 182.633 19.6999C183.26 20.3272 183.511 21.1428 183.511 22.0839C183.511 23.0249 183.197 23.8405 182.633 24.4679C182.006 25.158 181.254 25.4717 180.25 25.4717ZM178.746 23.7151C179.059 24.1542 179.561 24.3424 180.25 24.3424C180.94 24.3424 181.379 24.1542 181.755 23.7151C182.069 23.2759 182.257 22.7113 182.257 22.0839C182.257 21.4565 182.069 20.8919 181.755 20.4527C181.379 20.0135 180.94 19.8253 180.25 19.8253C179.561 19.8253 179.122 20.0135 178.746 20.4527C178.37 20.8919 178.244 21.3938 178.244 22.0839C178.244 22.774 178.432 23.3386 178.746 23.7151Z" fill="#008549"/>
    <path d="M187.962 25.472C186.896 25.472 186.081 25.1583 185.516 24.5309C184.952 23.9035 184.639 23.0879 184.639 22.0841C184.639 21.1431 184.952 20.3275 185.516 19.7001C186.143 19.0727 186.896 18.6963 187.899 18.6963C188.087 18.6963 188.338 18.6963 188.526 18.759C188.714 18.759 188.902 18.8218 189.027 18.8845C189.153 18.9472 189.341 19.01 189.466 19.0727C189.592 19.1355 189.717 19.1982 189.78 19.2609C189.842 19.3237 189.968 19.3864 190.031 19.4491C190.093 19.5119 190.156 19.5746 190.219 19.6374C190.281 19.7001 190.281 19.7628 190.344 19.8256C190.407 19.8883 190.407 19.8883 190.407 19.951V20.0138V20.7666H189.592C189.592 20.7666 189.592 20.7039 189.529 20.7039C189.529 20.6412 189.466 20.6412 189.466 20.5784C189.466 20.5157 189.404 20.4529 189.341 20.4529C189.278 20.3902 189.215 20.3275 189.215 20.3275C189.153 20.2647 189.09 20.202 189.027 20.202C188.965 20.1393 188.839 20.1393 188.777 20.0765C188.651 20.0138 188.589 20.0138 188.463 20.0138C188.338 20.0138 188.212 19.951 188.024 19.951C187.397 19.951 186.896 20.1393 186.52 20.5784C186.206 21.0176 186.018 21.5195 186.018 22.2096C186.018 22.8997 186.206 23.4016 186.52 23.8408C186.833 24.2799 187.335 24.4682 188.024 24.4682C188.275 24.4682 188.526 24.4054 188.714 24.3427C188.902 24.2799 189.09 24.2172 189.215 24.0917C189.341 24.029 189.404 23.9035 189.466 23.8408C189.529 23.7153 189.592 23.6526 189.592 23.5898C189.592 23.5271 189.654 23.5271 189.654 23.4643H190.469V24.2799C190.469 24.2799 190.469 24.3427 190.407 24.4054C190.344 24.4682 190.281 24.5936 190.156 24.7191C190.031 24.8446 189.905 24.9701 189.717 25.0955C189.529 25.221 189.278 25.2837 188.965 25.4092C188.651 25.472 188.338 25.472 187.962 25.472Z" fill="#008549"/>
    <path d="M197.617 19.6994L192.79 28.6081H191.849V27.6671L193.793 24.2792L191.285 19.7621V18.8838H192.163L194.42 23.0872L196.677 18.8838H197.492V19.6994H197.617Z" fill="#008549"/>
    <path d="M198.808 27.1654H197.617V24.2795H198.307C198.62 24.0285 198.871 23.2757 198.934 21.9582L199.185 18.8213H204.012V24.2795H205.078V27.1654H203.887V25.346H198.808V27.1654ZM199.623 24.3422H202.696V19.9506H200.25L200.062 22.2719C200.062 23.1502 199.874 23.8403 199.623 24.3422Z" fill="#008549"/>
    <path d="M208.15 25.4715C207.461 25.4715 206.896 25.2833 206.52 24.9068C206.144 24.5304 205.956 24.0285 205.956 23.4639C205.956 22.8992 206.144 22.3973 206.583 22.0836C207.022 21.7072 207.649 21.5817 208.527 21.5817C208.777 21.5817 209.028 21.5817 209.279 21.6445C209.53 21.7072 209.718 21.7072 209.843 21.7072L210.031 21.77V21.3935C210.031 20.3897 209.592 19.8878 208.652 19.8878C208.338 19.8878 208.025 19.9506 207.837 20.076C207.586 20.2015 207.461 20.327 207.335 20.4525L207.21 20.6407H206.395V19.8251L206.458 19.7624C206.458 19.6996 206.52 19.6996 206.583 19.6369C206.646 19.5741 206.708 19.5114 206.771 19.4487C206.834 19.3859 206.959 19.3232 207.085 19.1977C207.21 19.135 207.335 19.0722 207.523 19.0095C207.649 18.9468 207.837 18.884 208.088 18.884C208.276 18.8213 208.527 18.8213 208.777 18.8213C209.655 18.8213 210.282 19.0722 210.784 19.5114C211.223 19.9506 211.473 20.5779 211.473 21.4563V25.4715H210.407L210.282 24.5304C210.094 24.7814 209.843 25.0323 209.53 25.2205C209.091 25.346 208.652 25.4715 208.15 25.4715ZM208.338 24.4049C208.84 24.4049 209.279 24.2795 209.592 23.9658C209.906 23.6521 210.094 23.3384 210.094 23.0247V22.711C209.718 22.5855 209.216 22.5228 208.589 22.5228C208.088 22.5228 207.774 22.5855 207.586 22.7738C207.398 22.962 207.273 23.1502 207.273 23.4639C207.21 24.0913 207.586 24.4049 208.338 24.4049Z" fill="#008549"/>
    <path d="M214.483 28.6086H213.166V18.8843H214.357L214.483 19.8881C214.984 19.1352 215.737 18.7588 216.74 18.7588C217.68 18.7588 218.432 19.0725 218.934 19.6999C219.498 20.3272 219.749 21.1428 219.749 22.0839C219.749 23.0249 219.498 23.8405 218.934 24.4679C218.37 25.0953 217.617 25.4717 216.74 25.4717C215.737 25.4717 214.984 25.0953 214.483 24.3424V28.6086ZM216.489 24.4052C217.116 24.4052 217.617 24.217 217.994 23.7778C218.307 23.3386 218.495 22.774 218.495 22.1466C218.495 21.5192 218.307 20.9546 217.994 20.5154C217.68 20.0763 217.179 19.8881 216.489 19.8881C215.862 19.8881 215.423 20.0763 215.047 20.5154C214.671 20.9546 214.483 21.4565 214.483 22.1466C214.483 22.774 214.671 23.3386 215.047 23.7778C215.423 24.1542 215.862 24.4052 216.489 24.4052Z" fill="#008549"/>
    <path d="M224.2 25.472C223.134 25.472 222.319 25.1583 221.755 24.5309C221.19 23.9035 220.877 23.0879 220.877 22.0841C220.877 21.1431 221.19 20.3275 221.755 19.7001C222.382 19.0727 223.134 18.6963 224.137 18.6963C224.325 18.6963 224.576 18.6963 224.764 18.759C224.952 18.759 225.14 18.8218 225.266 18.8845C225.391 18.9472 225.579 19.01 225.705 19.0727C225.83 19.1355 225.955 19.1982 226.018 19.2609C226.081 19.3237 226.206 19.3864 226.269 19.4491C226.332 19.5119 226.394 19.5746 226.457 19.6374C226.52 19.7001 226.52 19.7628 226.582 19.8256C226.645 19.8883 226.645 19.8883 226.645 19.951V20.0138V20.7666H225.83C225.83 20.7666 225.83 20.7039 225.767 20.7039C225.767 20.6412 225.705 20.6412 225.705 20.5784C225.705 20.5157 225.642 20.4529 225.579 20.4529C225.516 20.3902 225.454 20.3275 225.454 20.3275C225.454 20.3275 225.328 20.202 225.266 20.202C225.203 20.1393 225.078 20.1393 225.015 20.0765C224.889 20.0138 224.827 20.0138 224.701 20.0138C224.576 20.0138 224.451 19.951 224.263 19.951C223.636 19.951 223.134 20.1393 222.758 20.5784C222.444 21.0176 222.256 21.5195 222.256 22.2096C222.256 22.8997 222.444 23.4016 222.758 23.8408C223.071 24.2799 223.573 24.4682 224.263 24.4682C224.513 24.4682 224.764 24.4054 224.952 24.3427C225.14 24.2799 225.328 24.2172 225.454 24.0917C225.579 24.029 225.642 23.9035 225.705 23.8408C225.767 23.7153 225.83 23.6526 225.83 23.5898C225.83 23.5271 225.893 23.5271 225.893 23.4643H226.708V24.2799C226.708 24.2799 226.708 24.3427 226.645 24.4054C226.582 24.4682 226.52 24.5936 226.394 24.7191C226.269 24.8446 226.143 24.9701 225.955 25.0955C225.767 25.221 225.516 25.2837 225.203 25.4092C224.952 25.472 224.576 25.472 224.2 25.472Z" fill="#008549"/>
    <path d="M230.909 25.3458H229.592V19.9503H227.523V18.8838H232.978V20.0131H230.909V25.3458Z" fill="#008549"/>
    <path d="M237.241 25.3458H234.231V18.8838H237.115C237.805 18.8838 238.369 19.0093 238.808 19.323C239.247 19.6366 239.435 20.0131 239.435 20.5777C239.435 21.2051 239.122 21.707 238.432 21.9579C238.808 22.0834 239.122 22.2716 239.31 22.5226C239.498 22.7735 239.623 23.0872 239.623 23.4636C239.623 24.091 239.373 24.5929 238.934 24.9066C238.495 25.2203 237.93 25.3458 237.241 25.3458ZM235.485 19.8876V21.456H237.053C237.68 21.456 237.993 21.2051 237.993 20.6404C237.993 20.1385 237.68 19.8876 237.053 19.8876H235.485ZM235.485 22.5226V24.342H237.115C237.868 24.342 238.307 24.0283 238.307 23.4636C238.307 22.8363 237.931 22.5226 237.115 22.5226H235.485Z" fill="#008549"/>
    <path d="M244.138 25.4717C243.072 25.4717 242.257 25.158 241.63 24.5307C241.065 23.9033 240.752 23.0877 240.752 22.0839C240.752 21.1428 241.065 20.3272 241.63 19.6999C242.194 19.0725 243.009 18.7588 244.012 18.7588C245.015 18.7588 245.768 19.0097 246.269 19.5116C246.771 20.0135 247.022 20.7037 247.022 21.582L246.959 22.2721H242.131C242.194 22.8995 242.382 23.4014 242.696 23.7778C243.072 24.1542 243.573 24.3424 244.2 24.3424C244.451 24.3424 244.702 24.3424 244.953 24.2797C245.203 24.217 245.329 24.1542 245.454 24.0915C245.58 24.0288 245.705 23.966 245.768 23.8405C245.83 23.7778 245.893 23.7151 245.956 23.6523L246.018 23.5896H246.833V24.4052C246.52 24.8443 246.018 25.158 245.266 25.3462C244.953 25.4717 244.576 25.4717 244.138 25.4717ZM242.131 21.331H245.705C245.705 20.8919 245.58 20.5154 245.266 20.2645C244.953 20.0135 244.576 19.8253 244.012 19.8253C242.946 19.8253 242.382 20.3272 242.131 21.331Z" fill="#008549"/>
    <path d="M249.78 25.3458H248.464V18.8838H249.78V21.456H252.915V18.8838H254.232V25.3458H252.915V22.5226H249.78V25.3458Z" fill="#008549"/>
    <path d="M257.429 25.3458H256.112V18.8838H257.429V21.456H260.564V18.8838H261.88V25.3458H260.564V22.5226H257.429V25.3458Z" fill="#008549"/>
    <path d="M266.332 25.3458H263.762V18.8838H265.078V21.0796H266.395C267.273 21.0796 267.9 21.2678 268.401 21.6442C268.84 22.0207 269.091 22.5226 269.091 23.1499C269.091 23.7773 268.84 24.342 268.401 24.7184C267.9 25.1576 267.21 25.3458 266.332 25.3458ZM265.078 22.0834V24.2792H266.27C267.21 24.2792 267.649 23.9028 267.649 23.1499C267.649 22.4598 267.21 22.0834 266.27 22.0834H265.078ZM271.285 25.3458H269.969V18.8838H271.285V25.3458Z" fill="#008549"/>
    <path d="M274.42 25.3462H273.229V18.8842H274.545V23.4641L277.931 18.8842H279.122V25.3462H277.743V20.7663L274.42 25.3462ZM277.116 17.7549C276.865 17.8177 276.551 17.8804 276.238 17.8804C275.924 17.8804 275.611 17.8177 275.36 17.7549C275.109 17.6922 274.921 17.5667 274.796 17.4413C274.671 17.3158 274.545 17.1903 274.482 17.1276C274.42 17.0021 274.357 16.9394 274.294 16.8139L274.232 16.6884V15.9355H275.235V15.9983C275.235 15.9983 275.235 16.061 275.297 16.1238C275.297 16.1865 275.36 16.2492 275.36 16.312C275.36 16.3747 275.423 16.4374 275.486 16.5002C275.548 16.5629 275.611 16.6257 275.674 16.6884C275.736 16.7511 275.799 16.7511 275.924 16.8139C276.05 16.8139 276.113 16.8766 276.238 16.8766C276.489 16.8766 276.677 16.8139 276.865 16.6884C277.053 16.5629 277.116 16.4374 277.178 16.2492L277.241 16.061H278.244V16.8139C278.244 16.8766 278.244 16.8766 278.182 16.9393C278.182 17.0021 278.119 17.0648 277.993 17.1903C277.868 17.3158 277.805 17.4413 277.68 17.5667C277.555 17.6295 277.366 17.6922 277.116 17.7549Z" fill="#008549"/>
    <path d="M104.2 36.9529C103.511 36.9529 102.946 36.7647 102.57 36.3883C102.194 36.0119 102.006 35.51 102.006 34.9453C102.006 34.3807 102.194 33.8788 102.633 33.5651C103.072 33.1887 103.699 33.0632 104.576 33.0632C104.827 33.0632 105.078 33.0632 105.329 33.1259C105.58 33.1887 105.768 33.1887 105.893 33.1887L106.081 33.2514V32.875C106.081 31.8712 105.642 31.3693 104.702 31.3693C104.388 31.3693 104.075 31.432 103.887 31.5575C103.636 31.683 103.511 31.8084 103.385 31.9339L103.26 32.1221H102.445V31.3065L102.507 31.2438C102.507 31.1811 102.57 31.1811 102.633 31.1183C102.696 31.0556 102.758 30.9928 102.821 30.9301C102.884 30.8674 103.009 30.8046 103.134 30.6792C103.26 30.6164 103.385 30.5537 103.573 30.4909C103.761 30.4282 103.887 30.3655 104.138 30.3655C104.326 30.3027 104.576 30.3027 104.827 30.3027C105.705 30.3027 106.332 30.5537 106.833 30.9928C107.272 31.432 107.523 32.0594 107.523 32.9377V36.9529H106.457L106.332 36.0119C106.144 36.2628 105.893 36.5138 105.58 36.702C105.141 36.8274 104.702 36.9529 104.2 36.9529ZM104.388 35.8864C104.89 35.8864 105.329 35.7609 105.642 35.4472C105.956 35.1335 106.144 34.8198 106.144 34.5062V34.1925C105.768 34.067 105.266 34.0043 104.639 34.0043C104.138 34.0043 103.824 34.067 103.636 34.2552C103.448 34.4434 103.322 34.6316 103.322 34.9453C103.26 35.5727 103.636 35.8864 104.388 35.8864Z" fill="#008549"/>
    <path d="M110.532 36.8272H109.216V30.3652H113.605V31.4318H110.47V36.8272H110.532Z" fill="#008549"/>
    <path d="M116.175 40.0891H114.858V30.3647H116.05L116.175 31.3685C116.677 30.6157 117.429 30.2393 118.432 30.2393C119.373 30.2393 120.125 30.5529 120.626 31.1803C121.191 31.8077 121.441 32.6233 121.441 33.5644C121.441 34.5054 121.191 35.321 120.626 35.9484C120.062 36.5758 119.31 36.9522 118.432 36.9522C117.429 36.9522 116.677 36.5758 116.175 35.8229V40.0891ZM118.181 35.8856C118.808 35.8856 119.31 35.6974 119.686 35.2583C119.999 34.8191 120.188 34.2545 120.188 33.6271C120.188 32.9997 119.999 32.4351 119.686 31.9959C119.373 31.5568 118.871 31.3685 118.181 31.3685C117.554 31.3685 117.115 31.5568 116.739 31.9959C116.363 32.4351 116.175 32.937 116.175 33.6271C116.175 34.2545 116.363 34.8191 116.739 35.2583C117.053 35.6347 117.554 35.8856 118.181 35.8856Z" fill="#008549"/>
    <path d="M124.702 36.9529C124.013 36.9529 123.448 36.7647 123.072 36.3883C122.696 36.0119 122.508 35.51 122.508 34.9453C122.508 34.3807 122.696 33.8788 123.135 33.5651C123.574 33.1887 124.201 33.0632 125.078 33.0632C125.329 33.0632 125.58 33.0632 125.831 33.1259C126.081 33.1887 126.27 33.1887 126.395 33.1887L126.583 33.2514V32.875C126.583 31.8712 126.144 31.3693 125.204 31.3693C124.89 31.3693 124.577 31.432 124.389 31.5575C124.138 31.683 124.013 31.8084 123.887 31.9339L123.762 32.1221H122.947V31.3065L123.009 31.2438C123.009 31.1811 123.072 31.1811 123.135 31.1183C123.197 31.0556 123.26 30.9928 123.323 30.9301C123.386 30.8674 123.511 30.8046 123.636 30.6792C123.762 30.6164 123.887 30.5537 124.075 30.4909C124.263 30.4282 124.389 30.3655 124.639 30.3655C124.828 30.3027 125.078 30.3027 125.329 30.3027C126.207 30.3027 126.834 30.5537 127.335 30.9928C127.774 31.432 128.025 32.0594 128.025 32.9377V36.9529H126.959L126.834 36.0119C126.646 36.2628 126.395 36.5138 126.081 36.702C125.705 36.8274 125.266 36.9529 124.702 36.9529ZM124.953 35.8864C125.455 35.8864 125.893 35.7609 126.207 35.4472C126.52 35.1335 126.708 34.8198 126.708 34.5062V34.1925C126.332 34.067 125.831 34.0043 125.204 34.0043C124.702 34.0043 124.389 34.067 124.201 34.2552C124.013 34.4434 123.887 34.6316 123.887 34.9453C123.824 35.5727 124.201 35.8864 124.953 35.8864Z" fill="#008549"/>
    <path d="M131.097 40.0891H129.78V30.3647H130.971L131.097 31.3685C131.598 30.6157 132.351 30.2393 133.354 30.2393C134.294 30.2393 135.047 30.5529 135.548 31.1803C136.113 31.8077 136.363 32.6233 136.363 33.5644C136.363 34.5054 136.113 35.321 135.548 35.9484C134.984 36.5758 134.232 36.9522 133.354 36.9522C132.351 36.9522 131.598 36.5758 131.097 35.8229V40.0891ZM133.103 35.8856C133.73 35.8856 134.232 35.6974 134.608 35.2583C134.921 34.8191 135.109 34.2545 135.109 33.6271C135.109 32.9997 134.921 32.4351 134.608 31.9959C134.294 31.5568 133.793 31.3685 133.103 31.3685C132.476 31.3685 132.037 31.5568 131.661 31.9959C131.285 32.4351 131.097 32.937 131.097 33.6271C131.097 34.2545 131.285 34.8191 131.661 35.2583C131.975 35.6347 132.476 35.8856 133.103 35.8856Z" fill="#008549"/>
    <path d="M139.185 36.8272H137.931V30.3652H139.247V32.9375H142.382V30.3652H143.699V36.8272H142.319V34.004H139.185V36.8272Z" fill="#008549"/>
    <path d="M148.15 36.8272H145.579V30.3652H146.896V32.5611H148.212C149.09 32.5611 149.717 32.7493 150.219 33.1257C150.657 33.5021 150.908 34.004 150.908 34.6314C150.908 35.2588 150.657 35.8234 150.219 36.1998C149.654 36.639 148.965 36.8272 148.15 36.8272ZM146.833 33.5649V35.8234H148.024C148.965 35.8234 149.404 35.447 149.404 34.6941C149.404 34.004 148.965 33.6276 148.024 33.6276H146.833V33.5649ZM153.04 36.8272H151.723V30.3652H153.04V36.8272Z" fill="#008549"/>
    <path d="M156.176 36.8267H154.984V30.3647H156.301V34.9445L159.687 30.3647H160.878V36.8267H159.561V32.2468L156.176 36.8267ZM158.872 29.2354C158.621 29.2981 158.307 29.3609 157.994 29.3609C157.68 29.3609 157.367 29.2981 157.116 29.2354C156.865 29.1727 156.677 29.0472 156.552 28.9217C156.426 28.7962 156.301 28.6708 156.238 28.608C156.176 28.4826 156.113 28.4198 156.05 28.2943L155.988 28.1689V27.416H156.991V27.4788C156.991 27.4788 156.991 27.5415 157.053 27.6042C157.116 27.667 157.116 27.7297 157.116 27.7924C157.116 27.8552 157.179 27.9179 157.241 27.9807C157.304 28.0434 157.367 28.1061 157.43 28.1689C157.492 28.2316 157.555 28.2316 157.68 28.2943C157.806 28.2943 157.868 28.3571 157.994 28.3571C158.245 28.3571 158.433 28.2943 158.621 28.1689C158.809 28.0434 158.872 27.9179 158.934 27.7297L158.997 27.5415H160V28.2943C160 28.3571 160 28.3571 159.937 28.4198C159.937 28.4826 159.875 28.5453 159.749 28.6708C159.624 28.7962 159.561 28.9217 159.436 29.0472C159.31 29.1099 159.122 29.1727 158.872 29.2354Z" fill="#008549"/>
    <path d="M171.41 31.1806L166.583 40.0893H165.705V39.211L167.648 35.8232L165.141 31.3061V30.4277H166.018L168.275 34.6312L170.532 30.4277H171.348V31.1806H171.41Z" fill="#008549"/>
    <path d="M173.918 36.8272H172.602V30.3652H173.918V32.9375H177.053V30.3652H178.37V36.8272H177.053V34.004H173.918V36.8272Z" fill="#008549"/>
    <path d="M181.379 36.8272H180.188V30.3652H181.504V34.9451L184.89 30.3652H186.081V36.8272H184.764V32.2474L181.379 36.8272Z" fill="#008549"/>
    <path d="M191.034 36.8272H188.024V30.3652H190.908C191.598 30.3652 192.162 30.4907 192.601 30.8044C193.04 31.1181 193.228 31.4945 193.228 32.0592C193.228 32.6865 192.915 33.1884 192.225 33.4394C192.601 33.5649 192.915 33.7531 193.103 34.004C193.291 34.255 193.416 34.5687 193.416 34.9451C193.416 35.5725 193.165 36.0744 192.727 36.388C192.288 36.7017 191.786 36.8272 191.034 36.8272ZM189.278 31.369V32.9375H190.846C191.473 32.9375 191.786 32.6865 191.786 32.1219C191.786 31.62 191.473 31.369 190.846 31.369H189.278ZM189.278 34.004V35.8234H190.908C191.661 35.8234 192.1 35.5097 192.1 34.9451C192.1 34.3177 191.723 34.004 190.908 34.004H189.278Z" fill="#008549"/>
    <path d="M197.931 36.9522C196.865 36.9522 196.05 36.6385 195.423 36.0111C194.858 35.3837 194.545 34.5682 194.545 33.5644C194.545 32.6233 194.858 31.8077 195.423 31.1803C195.987 30.5529 196.802 30.2393 197.805 30.2393C198.808 30.2393 199.561 30.4902 200.062 30.9921C200.564 31.494 200.815 32.1841 200.815 33.0625L200.752 33.7526H195.924C195.987 34.3799 196.175 34.8818 196.488 35.2583C196.865 35.6347 197.366 35.8229 197.993 35.8229C198.244 35.8229 198.495 35.8229 198.746 35.7602C198.996 35.6974 199.122 35.6347 199.247 35.572C199.373 35.5092 199.498 35.4465 199.561 35.321C199.623 35.2583 199.686 35.1955 199.749 35.1328L199.811 35.0701H200.626V35.8856C200.313 36.3248 199.811 36.6385 199.059 36.8267C198.746 36.9522 198.369 36.9522 197.931 36.9522ZM195.987 32.8115H199.561C199.561 32.3723 199.435 31.9959 199.122 31.745C198.808 31.494 198.432 31.3058 197.868 31.3058C196.802 31.3058 196.175 31.8077 195.987 32.8115Z" fill="#008549"/>
    <path d="M203.636 40.0891H202.319V30.3647H203.511L203.636 31.3685C204.138 30.6157 204.89 30.2393 205.893 30.2393C206.833 30.2393 207.586 30.5529 208.087 31.1803C208.652 31.8077 208.902 32.6233 208.902 33.5644C208.902 34.5054 208.652 35.321 208.087 35.9484C207.523 36.5758 206.771 36.9522 205.893 36.9522C204.89 36.9522 204.138 36.5758 203.636 35.8229V40.0891ZM205.642 35.8856C206.269 35.8856 206.771 35.6974 207.147 35.2583C207.46 34.8191 207.648 34.2545 207.648 33.6271C207.648 32.9997 207.46 32.4351 207.147 31.9959C206.833 31.5568 206.332 31.3685 205.642 31.3685C205.015 31.3685 204.576 31.5568 204.2 31.9959C203.824 32.4351 203.636 32.937 203.636 33.6271C203.636 34.2545 203.824 34.8191 204.2 35.2583C204.514 35.6347 205.015 35.8856 205.642 35.8856Z" fill="#008549"/>
    <path d="M213.354 36.9524C212.288 36.9524 211.473 36.6387 210.909 36.0114C210.345 35.384 210.031 34.5684 210.031 33.5646C210.031 32.6235 210.345 31.8079 210.909 31.1806C211.536 30.5532 212.288 30.1768 213.291 30.1768C213.48 30.1768 213.73 30.1768 213.918 30.2395C214.106 30.2395 214.295 30.3022 214.42 30.365C214.545 30.4277 214.733 30.4904 214.859 30.5532C214.984 30.6159 215.11 30.6787 215.172 30.7414C215.235 30.8041 215.36 30.8669 215.423 30.9296C215.486 30.9923 215.548 31.0551 215.611 31.1178C215.674 31.1806 215.674 31.2433 215.737 31.306C215.737 31.3688 215.799 31.3688 215.799 31.4315V31.4942V32.3098H214.984C214.984 32.3098 214.984 32.2471 214.922 32.2471C214.922 32.1844 214.859 32.1844 214.859 32.1216C214.859 32.0589 214.796 31.9962 214.733 31.9962C214.671 31.9334 214.608 31.8707 214.608 31.8707C214.545 31.8079 214.483 31.7452 214.42 31.7452C214.357 31.6825 214.232 31.6825 214.169 31.6197C214.044 31.557 213.981 31.557 213.856 31.557C213.73 31.557 213.605 31.4942 213.417 31.4942C212.79 31.4942 212.288 31.6825 211.912 32.1216C211.599 32.5608 211.411 33.0627 211.411 33.7528C211.411 34.4429 211.599 34.9448 211.912 35.384C212.226 35.8231 212.727 36.0114 213.417 36.0114C213.668 36.0114 213.918 35.9486 214.106 35.8859C214.295 35.8231 214.483 35.7604 214.608 35.6349C214.733 35.5722 214.796 35.4467 214.859 35.384C214.922 35.2585 214.984 35.1958 214.984 35.133C214.984 35.0703 215.047 35.0703 215.047 35.0076H215.862V35.8231C215.862 35.8231 215.862 35.8859 215.799 35.9486C215.737 36.0114 215.674 36.1368 215.548 36.2623C215.423 36.3878 215.298 36.5133 215.11 36.6387C214.922 36.7642 214.671 36.8269 214.357 36.9524C214.044 36.9524 213.73 36.9524 213.354 36.9524Z" fill="#008549"/>
    <path d="M218.557 36.8272H217.366V30.3652H218.683V34.9451L222.068 30.3652H223.26V36.8272H221.943V32.2474L218.557 36.8272Z" fill="#008549"/>
    <path d="M227.774 36.8274H226.457V31.432H224.451V30.3027H229.906V31.432H227.837V36.8274H227.774Z" fill="#008549"/>
    <path d="M233.855 36.9522C232.789 36.9522 231.974 36.6385 231.347 36.0111C230.783 35.3837 230.47 34.5682 230.47 33.5644C230.47 32.6233 230.783 31.8077 231.347 31.1803C231.912 30.5529 232.727 30.2393 233.73 30.2393C234.733 30.2393 235.485 30.4902 235.987 30.9921C236.489 31.494 236.739 32.1841 236.739 33.0625L236.677 33.7526H231.849C231.912 34.3799 232.1 34.8818 232.413 35.2583C232.789 35.6347 233.291 35.8229 233.918 35.8229C234.169 35.8229 234.42 35.8229 234.67 35.7602C234.921 35.6974 235.047 35.6347 235.172 35.572C235.297 35.5092 235.423 35.4465 235.485 35.321C235.548 35.2583 235.611 35.1955 235.673 35.1328L235.736 35.0701H236.551V35.8856C236.238 36.3248 235.736 36.6385 234.984 36.8267C234.67 36.9522 234.294 36.9522 233.855 36.9522ZM231.849 32.8115H235.423C235.423 32.3723 235.297 31.9959 234.984 31.745C234.67 31.494 234.294 31.3058 233.73 31.3058C232.664 31.3058 232.1 31.8077 231.849 32.8115Z" fill="#008549"/>
    <path d="M240.752 36.8274H239.435V31.432H237.366V30.3027H242.821V31.432H240.752V36.8274Z" fill="#008549"/>
</svg>