<svg width="23" height="22" viewBox="0 0 23 22" fill="none" xmlns="http://www.w3.org/2000/svg">
    <path d="M4.57225 18.6104C4.85104 17.6952 5.42164 16.893 6.19941 16.3228C6.97718 15.7527 7.92068 15.445 8.88995 15.4454L13.3974 15.4459C14.3679 15.4457 15.3126 15.7544 16.0911 16.326C16.8696 16.8977 17.4403 17.7017 17.7182 18.6187M1.00134 11C1.00152 12.3132 1.26402 13.6136 1.77385 14.8269C2.28368 16.0402 3.03087 17.1427 3.97274 18.0714C4.91461 19.0001 6.03272 19.7369 7.26324 20.2396C8.49376 20.7422 9.81258 21.0011 11.1444 21.0012C12.4762 21.0014 13.795 20.7429 15.0254 20.2405C16.2558 19.7381 17.3737 19.0016 18.3153 18.0732C19.2569 17.1447 20.0038 16.0424 20.5133 14.8292C21.0228 13.616 21.285 12.3157 21.2848 11.0025C21.2846 9.68923 21.0221 8.38884 20.5123 7.17552C20.0025 5.96221 19.2553 4.85972 18.3134 3.93102C17.3715 3.00233 16.2534 2.2656 15.0229 1.7629C13.7924 1.2602 12.4736 1.00139 11.1417 1.00123C9.8099 1.00106 8.49114 1.25956 7.26076 1.76196C6.03037 2.26436 4.91246 3.00082 3.97084 3.92929C3.02921 4.85776 2.28233 5.96006 1.77282 7.17326C1.26332 8.38645 1.00117 9.68678 1.00134 11ZM7.7622 8.7786C7.76231 9.66265 8.1186 10.5105 8.75266 11.1357C9.38672 11.7609 10.2466 12.1122 11.1432 12.1123C12.0398 12.1124 12.8996 11.7614 13.5335 11.1363C14.1674 10.5113 14.5235 9.66347 14.5233 8.77941C14.5232 7.89536 14.1669 7.04747 13.5329 6.42227C12.8988 5.79707 12.0389 5.44578 11.1423 5.44567C10.2457 5.44556 9.38592 5.79665 8.75203 6.42169C8.11813 7.04674 7.76208 7.89454 7.7622 8.7786Z" stroke="#7E7E7E" stroke-opacity="0.55" stroke-width="2" stroke-linecap="round" stroke-linejoin="round"/>
</svg>
