<svg width="22" height="21" viewBox="0 0 22 21" fill="none" xmlns="http://www.w3.org/2000/svg">
    <path d="M15.9694 1.00181L15.9699 5.05798M5.99009 1.0006L5.99063 5.05677M1.00153 9.11234L20.9601 9.11475M1.00063 5.72048C1.00056 5.1826 1.26334 4.66678 1.73116 4.2865C2.19898 3.90621 2.83352 3.69262 3.49518 3.6927L18.4641 3.69451C19.1258 3.69459 19.7604 3.90834 20.2283 4.28873C20.6962 4.66913 20.9591 5.18501 20.9592 5.72289L20.9609 17.8914C20.9609 18.4293 20.6981 18.9451 20.2303 19.3254C19.7625 19.7057 19.128 19.9193 18.4663 19.9192L3.49737 19.9174C2.8357 19.9173 2.2011 19.7035 1.73318 19.3232C1.26526 18.9428 1.00234 18.4269 1.00227 17.889L1.00063 5.72048Z" stroke="#B3B3B3" stroke-width="2" stroke-linecap="round" stroke-linejoin="round"/>
</svg>
