<svg width="32" height="32" viewBox="0 0 32 32" fill="none" xmlns="http://www.w3.org/2000/svg">
    <path d="M8.49917 17.2577L9.00579 16.9145L8.56852 16.4865C7.91345 15.8452 7.5 14.9668 7.5 14C7.5 12.0769 9.07692 10.5 11 10.5C12.9231 10.5 14.5 12.0769 14.5 14C14.5 14.9668 14.0865 15.8452 13.4315 16.4865L12.9942 16.9145L13.5008 17.2577C14.5716 17.9831 15.3209 19.1602 15.472 20.5H14.4651C14.2251 18.7958 12.7742 17.5 11 17.5C9.22578 17.5 7.7749 18.7958 7.53487 20.5H6.52805C6.67906 19.1602 7.4284 17.9831 8.49917 17.2577ZM2.5 9C2.5 7.63161 3.63161 6.5 5 6.5H27C28.3684 6.5 29.5 7.63161 29.5 9V23C29.5 24.3684 28.3684 25.5 27 25.5H5C3.63161 25.5 2.5 24.3684 2.5 23V9ZM27 7.5H5C4.15745 7.5 3.5 8.15745 3.5 9V23C3.5 23.8425 4.15745 24.5 5 24.5H27C27.8425 24.5 28.5 23.8425 28.5 23V9C28.5 8.15745 27.8425 7.5 27 7.5ZM25.5 12.5H18.5V11.5H25.5V12.5ZM13.5 14C13.5 12.6067 12.3933 11.5 11 11.5C9.60667 11.5 8.5 12.6067 8.5 14C8.5 15.3933 9.60667 16.5 11 16.5C12.3933 16.5 13.5 15.3933 13.5 14ZM25.5 16.5H18.5V15.5H25.5V16.5ZM22.5 20.5H18.5V19.5H22.5V20.5Z" stroke="#7E7E7E" stroke-opacity="0.55"/>
</svg>
