<svg width="28" height="20" viewBox="0 0 28 20" fill="none" xmlns="http://www.w3.org/2000/svg">
    <path d="M6.49917 11.2577L7.00579 10.9145L6.56852 10.4865C5.91345 9.84517 5.5 8.96678 5.5 8C5.5 6.07692 7.07692 4.5 9 4.5C10.9231 4.5 12.5 6.07692 12.5 8C12.5 8.96678 12.0865 9.84517 11.4315 10.4865L10.9942 10.9145L11.5008 11.2577C12.5716 11.9831 13.3209 13.1602 13.472 14.5H12.4651C12.2251 12.7958 10.7742 11.5 9 11.5C7.22578 11.5 5.7749 12.7958 5.53487 14.5H4.52805C4.67906 13.1602 5.4284 11.9831 6.49917 11.2577ZM0.5 3C0.5 1.63161 1.63161 0.5 3 0.5H25C26.3684 0.5 27.5 1.63161 27.5 3V17C27.5 18.3684 26.3684 19.5 25 19.5H3C1.63161 19.5 0.5 18.3684 0.5 17V3ZM25 1.5H3C2.15745 1.5 1.5 2.15745 1.5 3V17C1.5 17.8425 2.15745 18.5 3 18.5H25C25.8425 18.5 26.5 17.8425 26.5 17V3C26.5 2.15745 25.8425 1.5 25 1.5ZM23.5 6.5H16.5V5.5H23.5V6.5ZM11.5 8C11.5 6.60667 10.3933 5.5 9 5.5C7.60667 5.5 6.5 6.60667 6.5 8C6.5 9.39333 7.60667 10.5 9 10.5C10.3933 10.5 11.5 9.39333 11.5 8ZM23.5 10.5H16.5V9.5H23.5V10.5ZM20.5 14.5H16.5V13.5H20.5V14.5Z" stroke="#14904C"/>
</svg>
