<svg width="24" height="24" viewBox="0 0 24 24" fill="none" xmlns="http://www.w3.org/2000/svg">
    <rect width="24" height="24" rx="6" fill="#14904C"/>
    <path d="M5.25 6.375V7.5H17.625V16.5H9.75V17.625H19.875V16.5H18.75V6.375H5.25ZM7.5011 8.0625C6.26434 8.0625 5.25 9.0765 5.25 10.3125C5.25 11.5493 6.26479 12.5625 7.5011 12.5625C8.73589 12.5625 9.75 11.5493 9.75 10.3125C9.75 9.0765 8.73634 8.0625 7.5011 8.0625ZM10.875 8.625V9.75H13.6875V8.625H10.875ZM14.8125 8.625V9.75H16.5V8.625H14.8125ZM7.5011 9.1875C8.12773 9.1875 8.625 9.68438 8.625 10.3125C8.625 10.9421 8.12818 11.4375 7.5011 11.4375C6.87103 11.4375 6.375 10.9421 6.375 10.3125C6.375 9.68438 6.87148 9.1875 7.5011 9.1875ZM10.875 10.875V12H16.5V10.875H10.875ZM5.25 13.125V17.625H6.375V14.25H8.0625V17.625H9.1875V14.6202L10.3488 15.2344C10.6774 15.4088 11.0728 15.4081 11.4012 15.2344V15.2355L13.3876 14.1852L12.8624 13.1898L10.8761 14.2401L9.13477 13.3206C8.89223 13.1925 8.62135 13.125 8.34595 13.125H5.25Z" fill="white"/>
</svg>
